<svg xmlns="http://www.w3.org/2000/svg" viewBox="0 0 64 64" fill="none">
  <defs>
    <linearGradient id="bg" x1="8" y1="6" x2="58" y2="60" gradientUnits="userSpaceOnUse">
      <stop offset="0" stop-color="#123126" />
      <stop offset="0.52" stop-color="#0B1713" />
      <stop offset="1" stop-color="#07110D" />
    </linearGradient>
    <linearGradient id="mark" x1="18" y1="18" x2="46" y2="46" gradientUnits="userSpaceOnUse">
      <stop offset="0" stop-color="#F3FFF7" />
      <stop offset="0.5" stop-color="#C6FFD9" />
      <stop offset="1" stop-color="#7DFFB1" />
    </linearGradient>
    <radialGradient id="orb" cx="0" cy="0" r="1" gradientUnits="userSpaceOnUse" gradientTransform="translate(48 16) rotate(90) scale(14)">
      <stop offset="0" stop-color="#B9FFD2" />
      <stop offset="0.42" stop-color="#7DFFB1" stop-opacity="0.96" />
      <stop offset="1" stop-color="#7DFFB1" stop-opacity="0" />
    </radialGradient>
    <filter id="glow" x="22" y="-10" width="52" height="52" color-interpolation-filters="sRGB" filterUnits="userSpaceOnUse">
      <feFlood flood-opacity="0" result="BackgroundImageFix" />
      <feBlend in="SourceGraphic" in2="BackgroundImageFix" result="shape" />
      <feGaussianBlur result="effect1_foregroundBlur_1_1" stdDeviation="5" />
    </filter>
  </defs>

  <rect width="64" height="64" rx="20" fill="#040906" />
  <rect x="4" y="4" width="56" height="56" rx="16" fill="url(#bg)" />
  <rect x="5" y="5" width="54" height="54" rx="15" stroke="#D8F5E3" stroke-opacity="0.12" />

  <g opacity="0.55">
    <path d="M12 19H52" stroke="#7DFFB1" stroke-opacity="0.12" stroke-linecap="round" />
    <path d="M12 45H52" stroke="#7DFFB1" stroke-opacity="0.08" stroke-linecap="round" />
  </g>

  <g filter="url(#glow)">
    <circle cx="48" cy="16" r="10" fill="url(#orb)" />
  </g>
  <circle cx="48" cy="16" r="4.5" fill="#7DFFB1" />

  <path
    d="M18 45V20H25.4L32 30.242L38.6 20H46V45H39.8V30.796L32 42.02L24.2 30.796V45H18Z"
    fill="url(#mark)"
  />

  <path
    d="M18 49H35.5"
    stroke="#7DFFB1"
    stroke-opacity="0.34"
    stroke-width="2.4"
    stroke-linecap="round"
  />
</svg>
