<svg width="1600" height="900" viewBox="0 0 1600 900" fill="none" xmlns="http://www.w3.org/2000/svg">
  <defs>
    <linearGradient id="bg" x1="160" y1="60" x2="1440" y2="840" gradientUnits="userSpaceOnUse">
      <stop stop-color="#12261D"/>
      <stop offset="1" stop-color="#09110D"/>
    </linearGradient>
    <radialGradient id="glowA" cx="0" cy="0" r="1" gradientUnits="userSpaceOnUse" gradientTransform="translate(312 208) rotate(34.1) scale(468 260)">
      <stop stop-color="#8DFFC0" stop-opacity="0.28"/>
      <stop offset="1" stop-color="#8DFFC0" stop-opacity="0"/>
    </radialGradient>
    <radialGradient id="glowB" cx="0" cy="0" r="1" gradientUnits="userSpaceOnUse" gradientTransform="translate(1240 164) rotate(131.3) scale(420 252)">
      <stop stop-color="#49D48A" stop-opacity="0.24"/>
      <stop offset="1" stop-color="#49D48A" stop-opacity="0"/>
    </radialGradient>
    <linearGradient id="panel" x1="0" y1="0" x2="0" y2="1">
      <stop stop-color="#163126" stop-opacity="0.92"/>
      <stop offset="1" stop-color="#0B1611" stop-opacity="0.96"/>
    </linearGradient>
  </defs>

  <rect width="1600" height="900" rx="32" fill="url(#bg)"/>
  <rect width="1600" height="900" rx="32" fill="url(#glowA)"/>
  <rect width="1600" height="900" rx="32" fill="url(#glowB)"/>

  <g opacity="0.16">
    <path d="M0 150H1600" stroke="#7DFFB1"/>
    <path d="M0 300H1600" stroke="#7DFFB1"/>
    <path d="M0 450H1600" stroke="#7DFFB1"/>
    <path d="M0 600H1600" stroke="#7DFFB1"/>
    <path d="M0 750H1600" stroke="#7DFFB1"/>
    <path d="M200 0V900" stroke="#7DFFB1"/>
    <path d="M400 0V900" stroke="#7DFFB1"/>
    <path d="M600 0V900" stroke="#7DFFB1"/>
    <path d="M800 0V900" stroke="#7DFFB1"/>
    <path d="M1000 0V900" stroke="#7DFFB1"/>
    <path d="M1200 0V900" stroke="#7DFFB1"/>
    <path d="M1400 0V900" stroke="#7DFFB1"/>
  </g>

  <rect x="96" y="92" width="820" height="610" rx="32" fill="url(#panel)" stroke="#2F5B46"/>
  <rect x="124" y="124" width="764" height="56" rx="18" fill="#101E17" stroke="#284836"/>
  <circle cx="156" cy="152" r="7" fill="#7DFFB1" fill-opacity="0.82"/>
  <circle cx="182" cy="152" r="7" fill="#5FD68E" fill-opacity="0.68"/>
  <circle cx="208" cy="152" r="7" fill="#8DFFC0" fill-opacity="0.44"/>
  <text x="250" y="160" fill="#E6FFF0" font-family="monospace" font-size="28">DiceMaster CLI</text>

  <text x="144" y="244" fill="#8DFFC0" font-family="monospace" font-size="26">/start</text>
  <text x="144" y="290" fill="#B9D6C5" font-family="monospace" font-size="24">Dice rolling bot for D&amp;D sessions</text>

  <text x="144" y="376" fill="#8DFFC0" font-family="monospace" font-size="26">/roll d20</text>
  <text x="144" y="422" fill="#E6FFF0" font-family="monospace" font-size="42">20  CRITICAL HIT</text>

  <text x="144" y="506" fill="#8DFFC0" font-family="monospace" font-size="26">/roll 3d6</text>
  <text x="144" y="552" fill="#B9D6C5" font-family="monospace" font-size="34">4 + 5 + 6 = 15</text>

  <text x="144" y="636" fill="#8DFFC0" font-family="monospace" font-size="26">/roll 2d8 + 3</text>
  <text x="144" y="682" fill="#B9D6C5" font-family="monospace" font-size="34">7 + 5 + 3 = 15</text>

  <rect x="972" y="124" width="532" height="234" rx="28" fill="#0F1F18" stroke="#2D5945"/>
  <text x="1010" y="182" fill="#7DFFB1" font-family="monospace" font-size="24">FEATURES</text>
  <text x="1010" y="232" fill="#E6FFF0" font-family="monospace" font-size="24">d4 d6 d8 d10 d12 d20</text>
  <text x="1010" y="274" fill="#B9D6C5" font-family="monospace" font-size="22">multi-rolls, modifiers, macros</text>
  <text x="1010" y="316" fill="#B9D6C5" font-family="monospace" font-size="22">critical hit and fumble detection</text>

  <rect x="972" y="392" width="532" height="310" rx="28" fill="#0F1F18" stroke="#2D5945"/>
  <text x="1010" y="450" fill="#7DFFB1" font-family="monospace" font-size="24">BOT</text>
  <text x="1010" y="500" fill="#E6FFF0" font-family="monospace" font-size="34">@DiceMasterBot</text>
  <text x="1010" y="554" fill="#B9D6C5" font-family="monospace" font-size="22">Telegram automation for</text>
  <text x="1010" y="592" fill="#B9D6C5" font-family="monospace" font-size="22">tabletop game sessions</text>

  <g transform="translate(1292 520)">
    <polygon points="84,0 168,48 146,142 22,142 0,48" fill="#183327" stroke="#7DFFB1" stroke-width="3"/>
    <circle cx="84" cy="54" r="10" fill="#7DFFB1"/>
    <circle cx="54" cy="92" r="10" fill="#7DFFB1"/>
    <circle cx="114" cy="92" r="10" fill="#7DFFB1"/>
  </g>

  <text x="96" y="804" fill="#7EA08D" font-family="monospace" font-size="20">Python  |  Aiogram  |  Telegram Bot API  |  2025</text>
</svg>
