<svg width="1600" height="900" viewBox="0 0 1600 900" fill="none" xmlns="http://www.w3.org/2000/svg">
  <defs>
    <linearGradient id="bg" x1="196" y1="72" x2="1428" y2="826" gradientUnits="userSpaceOnUse">
      <stop stop-color="#11241B"/>
      <stop offset="1" stop-color="#08100C"/>
    </linearGradient>
    <radialGradient id="glowLeft" cx="0" cy="0" r="1" gradientUnits="userSpaceOnUse" gradientTransform="translate(286 170) rotate(26.5) scale(460 244)">
      <stop stop-color="#8DFFC0" stop-opacity="0.24"/>
      <stop offset="1" stop-color="#8DFFC0" stop-opacity="0"/>
    </radialGradient>
    <radialGradient id="glowRight" cx="0" cy="0" r="1" gradientUnits="userSpaceOnUse" gradientTransform="translate(1290 214) rotate(154.4) scale(430 278)">
      <stop stop-color="#49D48A" stop-opacity="0.22"/>
      <stop offset="1" stop-color="#49D48A" stop-opacity="0"/>
    </radialGradient>
    <linearGradient id="panel" x1="0" y1="0" x2="0" y2="1">
      <stop stop-color="#173126" stop-opacity="0.94"/>
      <stop offset="1" stop-color="#0A140F" stop-opacity="0.98"/>
    </linearGradient>
  </defs>

  <rect width="1600" height="900" rx="32" fill="url(#bg)"/>
  <rect width="1600" height="900" rx="32" fill="url(#glowLeft)"/>
  <rect width="1600" height="900" rx="32" fill="url(#glowRight)"/>

  <g opacity="0.12">
    <path d="M0 180H1600" stroke="#7DFFB1"/>
    <path d="M0 360H1600" stroke="#7DFFB1"/>
    <path d="M0 540H1600" stroke="#7DFFB1"/>
    <path d="M0 720H1600" stroke="#7DFFB1"/>
    <path d="M200 0V900" stroke="#7DFFB1"/>
    <path d="M400 0V900" stroke="#7DFFB1"/>
    <path d="M600 0V900" stroke="#7DFFB1"/>
    <path d="M800 0V900" stroke="#7DFFB1"/>
    <path d="M1000 0V900" stroke="#7DFFB1"/>
    <path d="M1200 0V900" stroke="#7DFFB1"/>
    <path d="M1400 0V900" stroke="#7DFFB1"/>
  </g>

  <rect x="96" y="94" width="1408" height="712" rx="36" fill="url(#panel)" stroke="#2B5843"/>

  <text x="136" y="164" fill="#E6FFF0" font-family="monospace" font-size="42">CPI</text>
  <text x="136" y="206" fill="#7EA08D" font-family="monospace" font-size="24">API + Telegram Bot for Personal Productivity</text>

  <rect x="136" y="260" width="390" height="256" rx="28" fill="#102019" stroke="#2D5945"/>
  <text x="170" y="316" fill="#7DFFB1" font-family="monospace" font-size="24">FASTAPI BACKEND</text>
  <text x="170" y="368" fill="#E6FFF0" font-family="monospace" font-size="22">users / profiles / tasks</text>
  <text x="170" y="406" fill="#B9D6C5" font-family="monospace" font-size="20">work sessions</text>
  <text x="170" y="442" fill="#B9D6C5" font-family="monospace" font-size="20">reminders + nudges</text>
  <text x="170" y="478" fill="#B9D6C5" font-family="monospace" font-size="20">SQLAlchemy async + Alembic</text>

  <rect x="606" y="260" width="390" height="256" rx="28" fill="#102019" stroke="#2D5945"/>
  <text x="640" y="316" fill="#7DFFB1" font-family="monospace" font-size="24">TELEGRAM BOT</text>
  <text x="640" y="368" fill="#E6FFF0" font-family="monospace" font-size="22">aiogram 3</text>
  <text x="640" y="406" fill="#B9D6C5" font-family="monospace" font-size="20">daily actions interface</text>
  <text x="640" y="442" fill="#B9D6C5" font-family="monospace" font-size="20">task reminder worker</text>
  <text x="640" y="478" fill="#B9D6C5" font-family="monospace" font-size="20">locale switch: 4 locales</text>

  <rect x="1076" y="260" width="388" height="256" rx="28" fill="#102019" stroke="#2D5945"/>
  <text x="1110" y="316" fill="#7DFFB1" font-family="monospace" font-size="24">POSTGRESQL</text>
  <text x="1110" y="368" fill="#E6FFF0" font-family="monospace" font-size="22">PostgreSQL 15</text>
  <text x="1110" y="406" fill="#B9D6C5" font-family="monospace" font-size="20">main storage</text>
  <text x="1110" y="442" fill="#B9D6C5" font-family="monospace" font-size="20">Docker Compose</text>
  <text x="1110" y="478" fill="#B9D6C5" font-family="monospace" font-size="20">healthy startup chain</text>

  <path d="M526 388H606" stroke="#7DFFB1" stroke-width="4" stroke-linecap="round"/>
  <path d="M996 388H1076" stroke="#7DFFB1" stroke-width="4" stroke-linecap="round"/>
  <circle cx="566" cy="388" r="8" fill="#7DFFB1"/>
  <circle cx="1036" cy="388" r="8" fill="#7DFFB1"/>

  <rect x="136" y="570" width="1328" height="176" rx="28" fill="#0D1A14" stroke="#274C3A"/>
  <text x="170" y="624" fill="#7DFFB1" font-family="monospace" font-size="24">KEY FLOWS</text>
  <text x="170" y="672" fill="#E6FFF0" font-family="monospace" font-size="22">start / finish work sessions</text>
  <text x="520" y="672" fill="#E6FFF0" font-family="monospace" font-size="22">task creation and management</text>
  <text x="970" y="672" fill="#E6FFF0" font-family="monospace" font-size="22">stats + reminders + timezone</text>
  <text x="170" y="714" fill="#7EA08D" font-family="monospace" font-size="20">Python 3.12+  |  FastAPI  |  Aiogram  |  SQLAlchemy  |  Alembic  |  asyncpg  |  PostgreSQL  |  Poetry</text>

  <rect x="1240" y="118" width="170" height="56" rx="18" fill="#123223" stroke="#2E5A46"/>
  <text x="1270" y="154" fill="#7DFFB1" font-family="monospace" font-size="24">IN PROGRESS</text>
</svg>
